<svg width="40" height="40" viewBox="0 0 40 40" fill="none" xmlns="http://www.w3.org/2000/svg">
<path d="M14.9993 31.6666H24.9993V34.9999H14.9993C10.3993 34.9999 6.66602 31.2666 6.66602 26.6666V11.6666H9.99935V26.6666C9.99935 29.4333 12.2327 31.6666 14.9993 31.6666ZM17.366 9.01662C18.666 7.71662 18.666 5.59995 17.366 4.29995C16.066 2.99995 13.9493 2.99995 12.6493 4.29995C11.3493 5.59995 11.3493 7.71662 12.6493 9.01662C13.9493 10.3333 16.0493 10.3333 17.366 9.01662ZM19.166 15C19.166 13.1666 17.666 11.6666 15.8327 11.6666H14.9993C13.166 11.6666 11.666 13.1666 11.666 15V25C11.666 27.7666 13.8993 29.9999 16.666 29.9999H25.116L30.9493 35.8333L33.3327 33.4499L24.8827 25H19.166V15Z" fill="white"/>
</svg>
