<svg width="40" height="40" viewBox="0 0 40 40" fill="none" xmlns="http://www.w3.org/2000/svg">
<path d="M14.5129 37.4C14.2571 37.292 14.0445 37.1019 13.9087 36.8597C13.7729 36.6175 13.7216 36.337 13.7629 36.0625L16.0379 21.25H10.0004C9.80901 21.2551 9.61898 21.2162 9.44498 21.1363C9.27099 21.0564 9.11768 20.9375 8.9969 20.7889C8.87611 20.6404 8.79106 20.466 8.74833 20.2794C8.70559 20.0928 8.70631 19.8988 8.75042 19.7125L12.5004 3.46246C12.5664 3.1828 12.7267 2.93441 12.9544 2.7591C13.1821 2.5838 13.4632 2.49228 13.7504 2.49996H26.2504C26.4372 2.49932 26.6217 2.54054 26.7904 2.62057C26.9591 2.70061 27.1078 2.81743 27.2254 2.96246C27.3447 3.10912 27.4292 3.28094 27.4725 3.46498C27.5158 3.64902 27.5168 3.84048 27.4754 4.02496L25.3129 13.75H31.2504C31.4847 13.7495 31.7144 13.8149 31.9133 13.9386C32.1122 14.0624 32.2723 14.2396 32.3754 14.45C32.465 14.6519 32.4995 14.8739 32.4753 15.0935C32.4512 15.3131 32.3692 15.5223 32.2379 15.7L15.9879 36.95C15.8781 37.1128 15.7315 37.2474 15.5599 37.343C15.3883 37.4385 15.1966 37.4923 15.0004 37.5C14.8332 37.4966 14.668 37.4627 14.5129 37.4Z" fill="white"/>
</svg>
