<svg width="40" height="40" viewBox="0 0 40 40" fill="none" xmlns="http://www.w3.org/2000/svg">
<path d="M27.3914 22.564C27.5823 22.7462 27.7353 22.9645 27.8415 23.2061C27.9477 23.4478 28.005 23.708 28.0102 23.9719C28.0153 24.2358 27.9681 24.4981 27.8714 24.7437C27.7747 24.9893 27.6303 25.2133 27.4466 25.4028C27.2629 25.5923 27.0434 25.7436 26.801 25.8479C26.5585 25.9523 26.2978 26.0076 26.0339 26.0106C25.77 26.0137 25.508 25.9645 25.2632 25.8659C25.0184 25.7673 24.7955 25.6212 24.6074 25.436C24.5415 25.3737 24.4734 25.3137 24.4034 25.256C24.0251 24.9632 23.6051 24.7286 23.1574 24.56C22.2514 24.2 21.1574 24 19.9994 24C18.1714 24 16.5334 24.502 15.5954 25.258C15.5207 25.3167 15.4527 25.376 15.3914 25.436C15.2033 25.6212 14.9804 25.7673 14.7356 25.8659C14.4908 25.9645 14.2288 26.0137 13.9649 26.0106C13.701 26.0076 13.4403 25.9523 13.1978 25.8479C12.9554 25.7436 12.736 25.5923 12.5522 25.4028C12.3685 25.2133 12.2241 24.9893 12.1274 24.7437C12.0307 24.4981 11.9835 24.2358 11.9887 23.9719C11.9938 23.708 12.0511 23.4478 12.1573 23.2061C12.2635 22.9645 12.4165 22.7462 12.6074 22.564C12.7594 22.4173 12.9194 22.276 13.0874 22.14C14.7894 20.774 17.3114 20 19.9994 20C21.6534 20 23.2474 20.292 24.6314 20.84C25.4914 21.18 26.2614 21.618 26.9114 22.14C27.0794 22.276 27.2394 22.4173 27.3914 22.564Z" fill="white"/>
<path d="M32.4258 17.378C32.6146 17.5643 32.7644 17.7862 32.8666 18.031C32.9688 18.2757 33.0213 18.5383 33.0211 18.8035C33.0208 19.0687 32.9678 19.3312 32.8652 19.5757C32.7626 19.8202 32.6123 20.0419 32.4232 20.2278C32.2341 20.4138 32.0099 20.5602 31.7637 20.6587C31.5174 20.7572 31.2541 20.8057 30.9889 20.8014C30.7238 20.7971 30.4621 20.7402 30.2191 20.6339C29.9762 20.5275 29.7568 20.3739 29.5738 20.182C29.376 19.9812 29.1677 19.7909 28.9498 19.612C28.4693 19.2214 27.9561 18.8727 27.4158 18.57C26.8198 18.2341 26.1962 17.9497 25.5518 17.72C24.8638 17.4663 24.157 17.267 23.4378 17.124C22.6881 16.9677 21.9281 16.8655 21.1638 16.818C20.0028 16.7442 18.8373 16.783 17.6838 16.934C16.9394 17.0335 16.2029 17.1852 15.4798 17.388C14.7956 17.5796 14.127 17.823 13.4798 18.116C12.8854 18.387 12.3142 18.7061 11.7718 19.07C11.5231 19.2391 11.2822 19.4193 11.0498 19.61C10.8318 19.7896 10.6236 19.9805 10.4258 20.182C10.244 20.3787 10.0246 20.5368 9.78063 20.6471C9.53661 20.7574 9.27293 20.8175 9.00523 20.824C8.73752 20.8304 8.47125 20.7831 8.2222 20.6847C7.97315 20.5863 7.74639 20.4389 7.55538 20.2512C7.36436 20.0636 7.21298 19.8394 7.1102 19.5922C7.00743 19.3449 6.95536 19.0795 6.95707 18.8117C6.95879 18.544 7.01426 18.2793 7.1202 18.0333C7.22614 17.7874 7.38039 17.5652 7.57379 17.38C7.86446 17.0867 8.17246 16.804 8.49779 16.532C8.82179 16.264 9.16313 16.008 9.52179 15.764C10.2493 15.2687 11.0189 14.8384 11.8218 14.478C12.6541 14.1005 13.5139 13.787 14.3938 13.54C15.2986 13.2861 16.2203 13.0963 17.1518 12.972C18.0957 12.8435 19.0472 12.7794 19.9998 12.78C20.9522 12.7817 21.9036 12.8451 22.8478 12.97C23.78 13.0942 24.7023 13.284 25.6078 13.538C26.487 13.7851 27.3462 14.0986 28.1778 14.476C28.9785 14.8407 29.7478 15.2709 30.4778 15.762C30.8378 16.006 31.1791 16.262 31.5018 16.53C31.8271 16.802 32.1351 17.0847 32.4258 17.378Z" fill="white"/>
<path d="M36.4894 12.4441C36.8259 12.8417 36.994 13.3549 36.958 13.8746C36.9219 14.3943 36.6845 14.8794 36.2963 15.2267C35.908 15.5741 35.3996 15.7562 34.8791 15.7344C34.3586 15.7126 33.8672 15.4886 33.5093 15.1101C33.2221 14.7879 32.9176 14.4814 32.5973 14.1921C32.2647 13.8888 31.9176 13.6018 31.5574 13.3321C30.7912 12.7661 29.9782 12.2663 29.1273 11.8381C28.222 11.3842 27.28 11.0075 26.3113 10.7121C25.3034 10.3977 24.2722 10.1636 23.2274 10.0121C22.1585 9.85558 21.0796 9.77804 19.9993 9.78006C18.9191 9.7787 17.8401 9.85691 16.7713 10.0141C15.7272 10.1695 14.6963 10.4035 13.6874 10.7141C12.7211 11.0153 11.7802 11.3925 10.8734 11.8421C10.4395 12.058 10.0158 12.2936 9.60335 12.5481C9.20539 12.793 8.81835 13.0552 8.44335 13.3341C8.08306 13.6038 7.73599 13.8908 7.40335 14.1941C7.08232 14.484 6.77721 14.7911 6.48935 15.1141C6.13405 15.5036 5.63932 15.737 5.11277 15.7637C4.58623 15.7903 4.07046 15.608 3.67766 15.2563C3.28487 14.9046 3.04682 14.4121 3.0153 13.8858C2.98378 13.3595 3.16134 12.8421 3.50935 12.4461C3.88268 12.0274 4.28268 11.6247 4.70935 11.2381C5.13068 10.8514 5.57602 10.4827 6.04535 10.1321C6.51335 9.78273 7.00135 9.45206 7.50935 9.14006C8.53997 8.5048 9.62409 7.96073 10.7494 7.51406C11.9076 7.0493 13.1015 6.67877 14.3194 6.40606C15.5587 6.12461 16.8177 5.93807 18.0854 5.84806C19.9966 5.70996 21.9173 5.78038 23.8133 6.05806C25.0607 6.24341 26.2922 6.52288 27.4973 6.89406C28.6719 7.25999 29.8155 7.71877 30.9173 8.26606C31.9809 8.80006 32.9966 9.42435 33.9533 10.1321C34.4213 10.4841 34.8674 10.8527 35.2914 11.2381C35.7154 11.6234 36.1154 12.0261 36.4914 12.4461M23.9993 30.5001C23.9993 31.5609 23.5779 32.5783 22.8278 33.3285C22.0776 34.0786 21.0602 34.5001 19.9993 34.5001C18.9385 34.5001 17.9211 34.0786 17.1709 33.3285C16.4208 32.5783 15.9994 31.5609 15.9994 30.5001C15.9994 29.4392 16.4208 28.4218 17.1709 27.6716C17.9211 26.9215 18.9385 26.5001 19.9993 26.5001C21.0602 26.5001 22.0776 26.9215 22.8278 27.6716C23.5779 28.4218 23.9993 29.4392 23.9993 30.5001Z" fill="white"/>
</svg>
