<svg width="40" height="41" viewBox="0 0 40 41" fill="none" xmlns="http://www.w3.org/2000/svg">
<path d="M15 1.25C15 0.918479 15.1317 0.600537 15.3661 0.366117C15.6005 0.131696 15.9185 0 16.25 0L23.75 0C24.0815 0 24.3995 0.131696 24.6339 0.366117C24.8683 0.600537 25 0.918479 25 1.25V7.5H28.75C29.7446 7.5 30.6984 7.89509 31.4017 8.59835C32.1049 9.30161 32.5 10.2554 32.5 11.25V33.75C32.5002 34.5275 32.2588 35.2857 31.8091 35.9199C31.3594 36.5542 30.7237 37.0329 29.99 37.29C30.0202 37.6269 29.9817 37.9664 29.8768 38.288C29.7719 38.6096 29.6029 38.9066 29.38 39.1609C29.157 39.4153 28.8847 39.6218 28.5797 39.7678C28.2746 39.9139 27.943 39.9966 27.6051 40.0108C27.2671 40.025 26.9298 39.9705 26.6135 39.8506C26.2973 39.7306 26.0086 39.5478 25.7651 39.313C25.5215 39.0783 25.3282 38.7966 25.1966 38.485C25.0651 38.1733 24.9982 37.8382 25 37.5H15C14.9977 37.8357 14.9278 38.1675 14.7945 38.4756C14.6611 38.7836 14.4672 39.0617 14.224 39.2932C13.9809 39.5247 13.6937 39.7049 13.3794 39.823C13.0652 39.941 12.7304 39.9946 12.395 39.9805C12.0596 39.9664 11.7305 39.8849 11.4273 39.7409C11.124 39.5968 10.8529 39.3932 10.6301 39.1421C10.4073 38.891 10.2374 38.5976 10.1304 38.2794C10.0234 37.9612 9.98162 37.6247 10.0075 37.29C9.27425 37.0325 8.63911 36.5536 8.18991 35.9194C7.7407 35.2852 7.49962 34.5271 7.5 33.75V11.25C7.5 10.2554 7.89509 9.30161 8.59835 8.59835C9.30161 7.89509 10.2554 7.5 11.25 7.5H15V1.25ZM22.5 2.5H17.5V7.5H22.5V2.5ZM15 13.75C15 13.4185 14.8683 13.1005 14.6339 12.8661C14.3995 12.6317 14.0815 12.5 13.75 12.5C13.4185 12.5 13.1005 12.6317 12.8661 12.8661C12.6317 13.1005 12.5 13.4185 12.5 13.75V31.25C12.5 31.5815 12.6317 31.8995 12.8661 32.1339C13.1005 32.3683 13.4185 32.5 13.75 32.5C14.0815 32.5 14.3995 32.3683 14.6339 32.1339C14.8683 31.8995 15 31.5815 15 31.25V13.75ZM21.25 13.75C21.25 13.4185 21.1183 13.1005 20.8839 12.8661C20.6495 12.6317 20.3315 12.5 20 12.5C19.6685 12.5 19.3505 12.6317 19.1161 12.8661C18.8817 13.1005 18.75 13.4185 18.75 13.75V31.25C18.75 31.5815 18.8817 31.8995 19.1161 32.1339C19.3505 32.3683 19.6685 32.5 20 32.5C20.3315 32.5 20.6495 32.3683 20.8839 32.1339C21.1183 31.8995 21.25 31.5815 21.25 31.25V13.75ZM27.5 13.75C27.5 13.4185 27.3683 13.1005 27.1339 12.8661C26.8995 12.6317 26.5815 12.5 26.25 12.5C25.9185 12.5 25.6005 12.6317 25.3661 12.8661C25.1317 13.1005 25 13.4185 25 13.75V31.25C25 31.5815 25.1317 31.8995 25.3661 32.1339C25.6005 32.3683 25.9185 32.5 26.25 32.5C26.5815 32.5 26.8995 32.3683 27.1339 32.1339C27.3683 31.8995 27.5 31.5815 27.5 31.25V13.75Z" fill="white"/>
</svg>
