<svg width="116" height="70" viewBox="0 0 116 70" fill="none" xmlns="http://www.w3.org/2000/svg">
<path d="M80.5778 35.7069C80.39 35.5193 80.2844 35.265 80.2844 34.9999C80.2844 34.7347 80.39 34.4804 80.5778 34.2929L86.2464 28.6359C86.3388 28.5403 86.4494 28.4642 86.5716 28.4118C86.6939 28.3593 86.8254 28.3318 86.9584 28.3306C87.0915 28.3295 87.2234 28.3548 87.3466 28.405C87.4697 28.4553 87.5816 28.5296 87.6757 28.6235C87.7698 28.7174 87.8442 28.829 87.8946 28.9519C87.9449 29.0748 87.9703 29.2065 87.9691 29.3393C87.968 29.472 87.9403 29.6033 87.8878 29.7253C87.8353 29.8473 87.759 29.9576 87.6633 30.0499L83.7052 33.9999L96.9753 33.9999C97.241 33.9999 97.4959 34.1052 97.6838 34.2927C97.8718 34.4803 97.9773 34.7346 97.9773 34.9999C97.9773 35.2651 97.8718 35.5194 97.6838 35.707C97.4959 35.8945 97.241 35.9999 96.9753 35.9999L83.7052 35.9999L87.6633 39.9499C87.8458 40.1385 87.9468 40.3911 87.9445 40.6533C87.9422 40.9155 87.8369 41.1663 87.6511 41.3517C87.4653 41.5371 87.214 41.6423 86.9512 41.6445C86.6885 41.6468 86.4354 41.546 86.2464 41.3639L80.5778 35.7069Z" fill="#DDB863"/>
<path d="M2.8995 27H4.5995V41H2.8995V27ZM3.8395 28.6V27H6.6995C7.60617 27 8.41283 27.1733 9.1195 27.52C9.8395 27.8533 10.4062 28.3333 10.8195 28.96C11.2462 29.5867 11.4595 30.3333 11.4595 31.2C11.4595 32.0533 11.2462 32.8 10.8195 33.44C10.4062 34.0667 9.8395 34.5533 9.1195 34.9C8.41283 35.2333 7.60617 35.4 6.6995 35.4H3.8395V33.8H6.6995C7.60617 33.8 8.3395 33.58 8.8995 33.14C9.47283 32.7 9.7595 32.0533 9.7595 31.2C9.7595 30.3333 9.47283 29.6867 8.8995 29.26C8.3395 28.82 7.60617 28.6 6.6995 28.6H3.8395ZM14.9659 31.8V41H13.3659V31.8H14.9659ZM17.7459 33.56C17.5326 33.4 17.3392 33.2867 17.1659 33.22C16.9926 33.14 16.7726 33.1 16.5059 33.1C16.1059 33.1 15.7926 33.2 15.5659 33.4C15.3392 33.6 15.1792 33.8733 15.0859 34.22C15.0059 34.5667 14.9659 34.96 14.9659 35.4H14.2459C14.2459 34.6667 14.3726 34.02 14.6259 33.46C14.8926 32.8867 15.2326 32.4333 15.6459 32.1C16.0592 31.7667 16.4792 31.6 16.9059 31.6C17.2392 31.6 17.5459 31.6467 17.8259 31.74C18.1192 31.82 18.3859 31.9867 18.6259 32.24L17.7459 33.56ZM23.4884 41.2C22.6351 41.2 21.8751 41 21.2084 40.6C20.5551 40.1867 20.0417 39.62 19.6684 38.9C19.3084 38.18 19.1284 37.3467 19.1284 36.4C19.1284 35.44 19.3151 34.6 19.6884 33.88C20.0751 33.16 20.6084 32.6 21.2884 32.2C21.9817 31.8 22.7817 31.6 23.6884 31.6C24.5951 31.6 25.3684 31.7933 26.0084 32.18C26.6617 32.5533 27.1617 33.0933 27.5084 33.8C27.8551 34.5067 28.0284 35.3467 28.0284 36.32C28.0284 36.4133 28.0217 36.5133 28.0084 36.62C28.0084 36.7133 28.0084 36.7733 28.0084 36.8H20.1484V35.44H26.7484L26.1084 36.36C26.1484 36.2933 26.1884 36.1933 26.2284 36.06C26.2684 35.9133 26.2884 35.7933 26.2884 35.7C26.2884 35.1533 26.1751 34.68 25.9484 34.28C25.7351 33.88 25.4351 33.5667 25.0484 33.34C24.6617 33.1133 24.2084 33 23.6884 33C23.0751 33 22.5484 33.1333 22.1084 33.4C21.6817 33.6533 21.3484 34.0267 21.1084 34.52C20.8817 35 20.7617 35.5933 20.7484 36.3C20.7484 37.02 20.8617 37.6333 21.0884 38.14C21.3151 38.6467 21.6484 39.0333 22.0884 39.3C22.5284 39.5667 23.0617 39.7 23.6884 39.7C24.3151 39.7 24.8684 39.5667 25.3484 39.3C25.8284 39.02 26.2351 38.6 26.5684 38.04L27.8684 38.86C27.3884 39.6333 26.7817 40.22 26.0484 40.62C25.3284 41.0067 24.4751 41.2 23.4884 41.2ZM28.4284 31.8H30.2284L32.8284 38.3L35.4284 31.8H37.2284L32.8284 41.7L28.4284 31.8ZM38.737 28C38.737 27.6933 38.8437 27.4333 39.057 27.22C39.2837 27.0067 39.5437 26.9 39.837 26.9C40.1437 26.9 40.4037 27.0067 40.617 27.22C40.8303 27.4333 40.937 27.6933 40.937 28C40.937 28.2933 40.8303 28.5533 40.617 28.78C40.4037 28.9933 40.1437 29.1 39.837 29.1C39.5437 29.1 39.2837 28.9933 39.057 28.78C38.8437 28.5533 38.737 28.2933 38.737 28ZM39.037 31.8H40.637V41H39.037V31.8ZM43.1323 36.4C43.1323 35.4667 43.339 34.64 43.7523 33.92C44.179 33.2 44.7523 32.6333 45.4723 32.22C46.1923 31.8067 46.999 31.6 47.8923 31.6C48.799 31.6 49.6056 31.8067 50.3123 32.22C51.0323 32.6333 51.599 33.2 52.0123 33.92C52.439 34.64 52.6523 35.4667 52.6523 36.4C52.6523 37.32 52.439 38.1467 52.0123 38.88C51.599 39.6 51.0323 40.1667 50.3123 40.58C49.6056 40.9933 48.799 41.2 47.8923 41.2C46.999 41.2 46.1923 40.9933 45.4723 40.58C44.7523 40.1667 44.179 39.6 43.7523 38.88C43.339 38.1467 43.1323 37.32 43.1323 36.4ZM44.7523 36.4C44.7523 37.04 44.8856 37.6067 45.1523 38.1C45.4323 38.5933 45.8056 38.9867 46.2723 39.28C46.7523 39.56 47.2923 39.7 47.8923 39.7C48.4923 39.7 49.0256 39.56 49.4923 39.28C49.9723 38.9867 50.3456 38.5933 50.6123 38.1C50.8923 37.6067 51.0323 37.04 51.0323 36.4C51.0323 35.76 50.8923 35.1933 50.6123 34.7C50.3456 34.1933 49.9723 33.8 49.4923 33.52C49.0256 33.24 48.4923 33.1 47.8923 33.1C47.2923 33.1 46.7523 33.24 46.2723 33.52C45.8056 33.8 45.4323 34.1933 45.1523 34.7C44.8856 35.1933 44.7523 35.76 44.7523 36.4ZM56.4503 37.4C56.4503 38.1333 56.6169 38.7 56.9503 39.1C57.2836 39.5 57.7703 39.7 58.4103 39.7C58.8769 39.7 59.2836 39.6067 59.6303 39.42C59.9903 39.22 60.2636 38.9467 60.4503 38.6C60.6503 38.2533 60.7503 37.8533 60.7503 37.4V31.8H62.3503V41H60.7503V39.56C60.4436 40.1067 60.0636 40.52 59.6103 40.8C59.1569 41.0667 58.6236 41.2 58.0103 41.2C57.0503 41.2 56.2836 40.8733 55.7103 40.22C55.1369 39.5667 54.8503 38.6933 54.8503 37.6V31.8H56.4503V37.4ZM65.7381 38.18C65.9248 38.46 66.1381 38.72 66.3781 38.96C66.6181 39.2 66.8914 39.3933 67.1981 39.54C67.5181 39.6733 67.8648 39.74 68.2381 39.74C68.6914 39.74 69.0448 39.64 69.2981 39.44C69.5648 39.2267 69.6981 38.94 69.6981 38.58C69.6981 38.26 69.5914 37.9933 69.3781 37.78C69.1781 37.5533 68.9181 37.3667 68.5981 37.22C68.2781 37.06 67.9381 36.9133 67.5781 36.78C67.1781 36.62 66.7714 36.4333 66.3581 36.22C65.9581 35.9933 65.6181 35.7067 65.3381 35.36C65.0714 35 64.9381 34.5533 64.9381 34.02C64.9381 33.4733 65.0781 33.02 65.3581 32.66C65.6514 32.3 66.0248 32.0333 66.4781 31.86C66.9448 31.6867 67.4248 31.6 67.9181 31.6C68.4114 31.6 68.8714 31.68 69.2981 31.84C69.7381 32 70.1248 32.2133 70.4581 32.48C70.7914 32.7467 71.0514 33.0533 71.2381 33.4L69.9581 34.22C69.7048 33.8733 69.3848 33.5867 68.9981 33.36C68.6248 33.1333 68.1981 33.02 67.7181 33.02C67.3848 33.02 67.0981 33.0933 66.8581 33.24C66.6181 33.3867 66.4981 33.6133 66.4981 33.92C66.4981 34.16 66.5914 34.3733 66.7781 34.56C66.9648 34.7467 67.2048 34.9133 67.4981 35.06C67.7914 35.2067 68.0981 35.3467 68.4181 35.48C68.9514 35.6933 69.4381 35.9267 69.8781 36.18C70.3181 36.42 70.6648 36.7133 70.9181 37.06C71.1848 37.4067 71.3181 37.8533 71.3181 38.4C71.3181 39.2 71.0248 39.8667 70.4381 40.4C69.8648 40.9333 69.1048 41.2 68.1581 41.2C67.5448 41.2 66.9914 41.0933 66.4981 40.88C66.0048 40.6533 65.5848 40.3667 65.2381 40.02C64.9048 39.6733 64.6514 39.32 64.4781 38.96L65.7381 38.18Z" fill="#DDB863"/>
<path d="M57.7799 7.8728C62.922 3.68919 69.1477 1.0469 75.7342 0.252714C82.3207 -0.541476 88.9978 0.545006 94.9904 3.38602C100.983 6.22704 106.045 10.706 109.589 16.303C113.133 21.9 115.014 28.3855 115.013 35.0063C115.011 41.6272 113.129 48.1119 109.582 53.7076C106.036 59.3033 100.973 63.7805 94.979 66.6194C88.9854 69.4582 82.3078 70.5423 75.7216 69.7458C69.1354 68.9492 62.9107 66.3047 57.7701 62.1192L58.8787 60.7633C63.7622 64.7395 69.6757 67.2518 75.9326 68.0085C82.1895 68.7652 88.5332 67.7353 94.2271 65.0384C99.921 62.3415 104.732 58.0882 108.1 52.7722C111.469 47.4563 113.258 41.2958 113.259 35.006C113.26 28.7162 111.474 22.555 108.107 17.2379C104.74 11.9207 99.9308 7.66569 94.2379 4.96672C88.545 2.26776 82.2017 1.2356 75.9445 1.99008C69.6874 2.74456 63.773 5.25473 58.888 9.22916L57.7799 7.8728Z" fill="#DDB863"/>
</svg>
