<svg width="83" height="70" viewBox="0 0 83 70" fill="none" xmlns="http://www.w3.org/2000/svg">
<path d="M34.4876 35.7069C34.6755 35.5193 34.781 35.265 34.781 34.9999C34.781 34.7347 34.6755 34.4804 34.4876 34.2929L28.8191 28.6359C28.7266 28.5403 28.616 28.4642 28.4938 28.4118C28.3715 28.3593 28.24 28.3318 28.107 28.3306C27.9739 28.3295 27.842 28.3548 27.7189 28.405C27.5957 28.4553 27.4838 28.5296 27.3897 28.6235C27.2957 28.7174 27.2212 28.829 27.1709 28.9519C27.1205 29.0748 27.0951 29.2065 27.0963 29.3393C27.0974 29.472 27.1251 29.6033 27.1776 29.7253C27.2301 29.8473 27.3065 29.9576 27.4022 30.0499L31.3602 33.9999L18.0902 33.9999C17.8244 33.9999 17.5695 34.1052 17.3816 34.2927C17.1937 34.4803 17.0881 34.7346 17.0881 34.9999C17.0881 35.2651 17.1937 35.5194 17.3816 35.707C17.5695 35.8945 17.8244 35.9999 18.0902 35.9999L31.3602 35.9999L27.4022 39.9499C27.2196 40.1385 27.1186 40.3911 27.1209 40.6533C27.1232 40.9155 27.2286 41.1663 27.4144 41.3517C27.6002 41.5371 27.8515 41.6423 28.1142 41.6445C28.3769 41.6468 28.6301 41.546 28.8191 41.3639L34.4876 35.7069Z" fill="#DDB863"/>
<path d="M55.3406 27H57.0406V41.7L46.4406 30.58V41H44.7406V26.3L55.3406 37.42V27ZM63.7084 41.2C62.8551 41.2 62.0951 41 61.4284 40.6C60.7751 40.1867 60.2618 39.62 59.8884 38.9C59.5284 38.18 59.3484 37.3467 59.3484 36.4C59.3484 35.44 59.5351 34.6 59.9084 33.88C60.2951 33.16 60.8284 32.6 61.5084 32.2C62.2018 31.8 63.0018 31.6 63.9084 31.6C64.8151 31.6 65.5884 31.7933 66.2284 32.18C66.8818 32.5533 67.3818 33.0933 67.7284 33.8C68.0751 34.5067 68.2484 35.3467 68.2484 36.32C68.2484 36.4133 68.2418 36.5133 68.2284 36.62C68.2284 36.7133 68.2284 36.7733 68.2284 36.8H60.3684V35.44H66.9684L66.3284 36.36C66.3684 36.2933 66.4084 36.1933 66.4484 36.06C66.4884 35.9133 66.5084 35.7933 66.5084 35.7C66.5084 35.1533 66.3951 34.68 66.1684 34.28C65.9551 33.88 65.6551 33.5667 65.2684 33.34C64.8818 33.1133 64.4284 33 63.9084 33C63.2951 33 62.7684 33.1333 62.3284 33.4C61.9018 33.6533 61.5684 34.0267 61.3284 34.52C61.1018 35 60.9818 35.5933 60.9684 36.3C60.9684 37.02 61.0818 37.6333 61.3084 38.14C61.5351 38.6467 61.8684 39.0333 62.3084 39.3C62.7484 39.5667 63.2818 39.7 63.9084 39.7C64.5351 39.7 65.0884 39.5667 65.5684 39.3C66.0484 39.02 66.4551 38.6 66.7884 38.04L68.0884 38.86C67.6084 39.6333 67.0018 40.22 66.2684 40.62C65.5484 41.0067 64.6951 41.2 63.7084 41.2ZM75.0484 31.8H76.8484L73.7084 36.26L77.0484 41H75.2484L72.8484 37.52L70.4484 41H68.6484L71.9884 36.26L68.8484 31.8H70.6484L72.8484 35L75.0484 31.8ZM77.1469 31.8H81.7469V33.3H77.1469V31.8ZM78.6469 28.6H80.2469V41H78.6469V28.6Z" fill="#DDB863"/>
<path d="M57.2855 7.8728C52.1434 3.68919 45.9177 1.0469 39.3312 0.252714C32.7448 -0.541476 26.0676 0.545006 20.0751 3.38602C14.0825 6.22704 9.02032 10.706 5.47624 16.303C1.93215 21.9 0.0515397 28.3855 0.0527349 35.0063C0.0539302 41.6272 1.93688 48.1119 5.48299 53.7076C9.0291 59.3033 14.0929 63.7805 20.0865 66.6194C26.0801 69.4582 32.7576 70.5423 39.3438 69.7458C45.93 68.9492 52.1547 66.3047 57.2953 62.1192L56.1867 60.7633C51.3032 64.7395 45.3897 67.2518 39.1328 68.0085C32.8759 68.7652 26.5323 67.7353 20.8384 65.0384C15.1445 62.3415 10.3339 58.0882 6.96506 52.7722C3.59626 47.4563 1.80745 41.2958 1.80631 35.006C1.80518 28.7162 3.59176 22.555 6.95864 17.2379C10.3255 11.9207 15.1346 7.66569 20.8275 4.96672C26.5205 2.26776 32.8637 1.2356 39.1209 1.99008C45.3781 2.74456 51.2925 5.25473 56.1774 9.22916L57.2855 7.8728Z" fill="#DDB863"/>
</svg>
