<svg width="23" height="23" viewBox="0 0 23 23" fill="none" xmlns="http://www.w3.org/2000/svg">
<path d="M20.0177 9.87318C20.1388 9.06061 20.0991 8.22873 19.8985 7.42886C19.6336 6.3722 19.0879 5.37151 18.2616 4.54519C17.4353 3.71887 16.4346 3.17323 15.378 2.90828C14.5781 2.70771 13.7462 2.66799 12.9336 2.78911" stroke="#ACC737" stroke-width="1.5" stroke-linecap="round" stroke-linejoin="round"/>
<path d="M16.3789 9.48867C16.5087 8.61821 16.2385 7.69965 15.5685 7.02958C14.8983 6.35952 13.9798 6.08931 13.1094 6.21907" stroke="#ACC737" stroke-width="1.5" stroke-linecap="round" stroke-linejoin="round"/>
<path d="M6.88686 4.21289C7.23498 4.21289 7.55573 4.40171 7.72473 4.70608L8.89697 6.81767C9.05044 7.09415 9.05768 7.42856 8.91623 7.71141L7.78693 9.97001C7.78693 9.97001 8.1142 11.6526 9.48385 13.0223C10.8535 14.3919 12.5304 14.7135 12.5304 14.7135L14.7887 13.5844C15.0717 13.4429 15.4064 13.4502 15.683 13.604L17.8006 14.7813C18.1047 14.9503 18.2932 15.2709 18.2932 15.6189V18.0499C18.2932 19.2879 17.1433 20.1821 15.9702 19.7863C13.561 18.9734 9.82128 17.4256 7.45094 15.0552C5.08055 12.6848 3.53274 8.94507 2.71983 6.53587C2.32402 5.36282 3.21819 4.21289 4.45619 4.21289H6.88686Z" fill="#ACC737" stroke="#ACC737" stroke-width="1.5" stroke-linejoin="round"/>
</svg>
