<svg width="70" height="87" viewBox="0 0 70 87" fill="none" xmlns="http://www.w3.org/2000/svg">
<path d="M40.8041 71.6982C42.7387 71.6982 44.6734 71.6982 46.6667 71.6982C46.6667 76.651 46.6667 81.6038 46.6667 86.7066C40.1005 86.7066 40.1005 86.7066 38.5763 85.4168C38.0364 85.0076 38.0364 85.0076 37.4921 84.6043C37.1396 84.3393 36.8039 84.0583 36.4657 83.7753C36.2083 83.5706 35.9485 83.3689 35.6889 83.167C35.0296 82.6519 34.3845 82.123 33.7432 81.5855C32.8664 80.8528 31.9624 80.1624 31.0456 79.481C30.5413 79.1041 30.056 78.7157 29.5927 78.2887C29.4297 78.1345 29.4297 78.1345 29.196 78.0299C29.196 80.8545 29.196 83.6791 29.196 86.5894C27.2613 86.5894 25.3267 86.5894 23.3334 86.5894C23.3334 81.714 23.3334 76.8386 23.3334 71.8155C25.6163 71.8155 27.8992 71.8155 30.2513 71.8155C30.2513 71.8929 30.2513 71.9703 30.2513 72.05C30.354 72.0983 30.354 72.0983 30.4588 72.1476C30.7125 72.2804 30.9256 72.4258 31.1527 72.5996C31.2338 72.6616 31.315 72.7236 31.3986 72.7874C31.4843 72.8536 31.57 72.9198 31.6583 72.988C31.7477 73.0566 31.837 73.1253 31.929 73.196C32.55 73.6755 33.1528 74.1716 33.7519 74.6781C34.2711 75.1107 34.8128 75.5145 35.3511 75.9228C36.0721 76.4707 36.7797 77.034 37.4853 77.6017C37.8828 77.9214 38.2842 78.236 38.688 78.5479C38.8583 78.6795 39.028 78.8118 39.1973 78.9446C39.2874 79.0151 39.3775 79.0857 39.4703 79.1585C39.5492 79.2204 39.6281 79.2824 39.7094 79.3462C40.0684 79.6188 40.4372 79.8784 40.8041 80.1405C40.8041 77.3545 40.8041 74.5686 40.8041 71.6982Z" fill="#DDB863"/>
<path d="M47.9564 71.8155C50.1794 71.8076 52.4025 71.8011 54.6255 71.7973C55.6578 71.7955 56.6901 71.793 57.7224 71.789C58.6226 71.7855 59.5229 71.7832 60.4231 71.7824C60.8993 71.782 61.3755 71.7809 61.8518 71.7783C62.301 71.7759 62.7502 71.7752 63.1995 71.7757C63.3634 71.7756 63.5273 71.7749 63.6912 71.7736C64.7146 71.7655 65.6206 71.8653 66.5996 72.1673C66.706 72.2001 66.8123 72.2328 66.9218 72.2666C67.969 72.6092 68.8817 73.4023 69.4078 74.3721C69.8313 75.2577 69.9389 76.1201 69.9267 77.0919C69.9281 77.1998 69.9294 77.3077 69.9308 77.4189C69.9245 78.9093 69.4215 80.0677 68.4129 81.1564C68.0036 81.5443 67.5827 81.7915 67.0687 82.0165C66.9956 82.0496 66.9226 82.0827 66.8474 82.1168C66.1294 82.4134 65.3633 82.5573 64.6063 82.72C64.6665 82.7518 64.7267 82.7835 64.7886 82.8162C65.6134 83.28 66.3373 83.8464 67.0789 84.4311C67.6512 84.8816 68.2281 85.3224 68.8201 85.7466C68.9208 85.8195 68.9208 85.8195 69.0236 85.8938C69.3101 86.0973 69.5468 86.2429 69.8827 86.3549C69.9214 86.471 69.9601 86.587 70 86.7066C67.5236 86.7066 65.0472 86.7066 62.4958 86.7066C62.4958 86.6292 62.4958 86.5519 62.4958 86.4721C62.4028 86.432 62.4028 86.432 62.308 86.3911C61.9332 86.1866 61.6112 85.9249 61.2793 85.6587C61.133 85.5425 60.9868 85.4263 60.8405 85.3101C60.7281 85.2206 60.7281 85.2206 60.6134 85.1292C60.3888 84.9507 60.1633 84.7734 59.9373 84.5965C59.8649 84.5399 59.7926 84.4833 59.7181 84.425C59.5807 84.3176 59.4434 84.2102 59.306 84.1028C59.2108 84.0282 59.2108 84.0282 59.1138 83.9521C59.0591 83.9094 59.0045 83.8666 58.9482 83.8225C58.7437 83.6581 58.7437 83.6581 58.4308 83.3517C57.9941 82.9889 57.5992 82.986 57.0481 82.9889C56.9091 82.9862 56.9091 82.9862 56.7672 82.9835C56.4733 82.9785 56.1796 82.9775 55.8857 82.9765C55.6855 82.9738 55.4853 82.9708 55.2852 82.9676C54.7965 82.9602 54.3078 82.9564 53.8191 82.9545C53.8197 83.064 53.8203 83.1735 53.8209 83.2863C53.8229 83.6913 53.8244 84.0962 53.8255 84.5011C53.8261 84.6766 53.8269 84.8521 53.8279 85.0276C53.8293 85.2793 53.83 85.5311 53.8305 85.7828C53.8311 85.9345 53.8317 86.0861 53.8324 86.2424C53.8191 86.5894 53.8191 86.5894 53.7018 86.7066C53.5183 86.7176 53.3342 86.7204 53.1503 86.7199C53.0313 86.7199 52.9123 86.7199 52.7897 86.7199C52.6637 86.7193 52.5377 86.7187 52.4079 86.7181C52.2928 86.718 52.1777 86.7178 52.059 86.7177C51.6271 86.7171 51.1951 86.7155 50.7632 86.714C49.7982 86.7115 48.8333 86.7091 47.8392 86.7066C47.8392 83.9981 47.8392 81.2895 47.8392 78.4989C48.9622 78.4932 50.0852 78.4874 51.2423 78.4815C51.9519 78.4774 52.6615 78.4732 53.3711 78.4687C54.4985 78.4616 55.6259 78.4548 56.7534 78.4495C57.5743 78.4456 58.3953 78.4409 59.2163 78.4353C59.6512 78.4323 60.0861 78.4298 60.521 78.4282C61.0059 78.4264 61.4907 78.4228 61.9756 78.4191C62.1931 78.4187 62.1931 78.4187 62.415 78.4183C62.5465 78.417 62.6781 78.4157 62.8136 78.4143C62.9284 78.4137 63.0431 78.413 63.1614 78.4124C63.4564 78.4078 63.4564 78.4078 63.6683 78.1472C63.7101 77.8965 63.7101 77.8965 63.705 77.6195C63.7079 77.4799 63.7079 77.4799 63.7109 77.3374C63.6969 77.2564 63.6828 77.1754 63.6683 77.0919C63.2763 76.8306 63.1489 76.8274 62.6911 76.8247C62.5614 76.8234 62.4317 76.8221 62.298 76.8208C62.0845 76.8204 62.0845 76.8204 61.8666 76.82C61.7167 76.8188 61.5669 76.8176 61.4125 76.8164C61.0014 76.8132 60.5903 76.8115 60.1792 76.8099C59.7497 76.8081 59.3201 76.805 58.8906 76.802C58.0771 76.7965 57.2636 76.7922 56.4501 76.7883C55.524 76.7838 54.5979 76.778 53.6718 76.7721C51.7667 76.76 49.8616 76.7497 47.9564 76.7401C47.9564 75.115 47.9564 73.4899 47.9564 71.8155Z" fill="#DDB863"/>
<path d="M12.077 0.0567227C16.1677 0.0459445 20.2584 0.0377015 24.3491 0.0327724C24.8341 0.032186 25.319 0.0315789 25.804 0.0309591C25.9005 0.0308361 25.9971 0.030713 26.0965 0.0305863C27.6514 0.0285556 29.2064 0.0248634 30.7613 0.0205371C32.3615 0.0161226 33.9617 0.0135401 35.5619 0.0125941C36.5461 0.0119564 37.5304 0.00995623 38.5146 0.00610859C39.1932 0.00359406 39.8718 0.00288789 40.5503 0.0034892C40.9395 0.00378424 41.3287 0.00312092 41.7179 0.000813911C43.3617 -0.00843682 44.9719 0.0599238 46.6014 0.269823C46.748 0.288633 46.8945 0.307442 47.0455 0.326822C50.8693 0.859179 54.8899 2.30286 57.857 4.84165C58.1577 5.09883 58.4672 5.34042 58.7803 5.58227C59.265 5.96879 59.6582 6.36359 60.0335 6.85739C60.0335 6.93478 60.0335 7.01217 60.0335 7.0919C60.1021 7.12046 60.1707 7.14903 60.2414 7.17846C62.3428 8.36927 63.9297 12.3963 64.6414 14.5792C64.6994 14.7566 64.7591 14.9335 64.8199 15.1099C66.8478 21.0063 66.8417 27.1182 64.1286 32.7997C63.0293 35.0502 61.4661 37.2188 59.5645 38.8674C59.4871 38.8674 59.4097 38.8674 59.3299 38.8674C59.3299 38.9448 59.3299 39.0222 59.3299 39.1019C59.1749 39.2517 59.1749 39.2517 58.9557 39.4212C58.8749 39.4838 58.7941 39.5464 58.7108 39.6109C58.6225 39.6775 58.5342 39.7442 58.4432 39.8128C58.3525 39.8814 58.2618 39.95 58.1684 40.0206C56.218 41.4741 54.0668 42.5358 51.7603 43.3006C51.3735 43.4234 51.3735 43.4234 51.0961 43.5763C50.8877 43.6748 50.8877 43.6748 50.4187 43.6748C50.8652 44.1348 51.3369 44.5505 51.8258 44.9646C52.3298 45.3963 52.8224 45.8386 53.3077 46.2913C53.9443 46.8848 54.5925 47.4509 55.2714 47.9962C55.5777 48.2475 55.8714 48.5084 56.1641 48.7753C56.5598 49.136 56.9636 49.4801 57.3806 49.8159C57.8512 50.1964 58.301 50.5913 58.7437 51.0031C59.2779 51.4996 59.8289 51.9679 60.3967 52.4257C60.997 52.9153 61.5814 53.4236 62.1682 53.9293C62.4413 54.1644 62.7152 54.3986 62.989 54.6329C65.4483 56.7373 65.4483 56.7373 66.4091 57.6132C66.7505 57.9232 67.0968 58.2143 67.4644 58.4926C68.2836 59.1158 69.0406 59.8294 69.7655 60.5592C68.1764 60.5701 66.5874 60.5784 64.9984 60.5835C64.2605 60.586 63.5226 60.5893 62.7847 60.5946C62.0724 60.5997 61.36 60.6025 60.6477 60.6037C60.3761 60.6046 60.1046 60.6063 59.8331 60.6088C59.4522 60.6122 59.0715 60.6127 58.6906 60.6125C58.5788 60.6142 58.4671 60.6158 58.3519 60.6176C57.2407 60.6108 56.5492 60.1871 55.7757 59.4233C55.6438 59.2972 55.5116 59.1714 55.3791 59.0459C55.2815 58.9534 55.2815 58.9534 55.182 58.8591C54.8071 58.5128 54.4059 58.1988 54.0082 57.8794C53.702 57.6281 53.4082 57.3672 53.1155 57.1003C52.7263 56.7458 52.3302 56.4055 51.921 56.0743C51.2443 55.5262 50.588 54.9565 49.9314 54.3847C49.4977 54.0071 49.0608 53.6334 48.6233 53.2602C48.153 52.8587 47.6883 52.4527 47.2309 52.0364C46.7432 51.5939 46.2386 51.1769 45.7268 50.7627C45.2596 50.3792 44.8025 49.9845 44.3449 49.5898C43.9248 49.2283 43.4997 48.8744 43.0684 48.5261C42.512 48.0744 41.9818 47.5987 41.4539 47.1141C40.754 46.4722 40.0299 45.8594 39.3044 45.2469C38.8134 44.8322 38.3241 44.4155 37.836 43.9973C37.7671 43.9382 37.6982 43.8792 37.6272 43.8184C37.1758 43.4311 36.7278 43.0401 36.2843 42.6438C36.1133 42.4909 36.1133 42.4909 35.8794 42.385C35.8794 42.3076 35.8794 42.2303 35.8794 42.1505C35.7794 42.1068 35.7794 42.1068 35.6774 42.0621C35.3691 41.8934 35.1471 41.694 34.89 41.4543C34.4363 41.0384 33.9761 40.6338 33.505 40.2378C32.8875 39.7187 32.2749 39.1943 31.6643 38.6672C31.1549 38.2296 30.6325 37.8116 30.0982 37.4045C30.0326 37.3456 29.9671 37.2866 29.8995 37.2259C29.8995 37.1485 29.8995 37.0711 29.8995 36.9914C29.706 36.914 29.5125 36.8366 29.3132 36.7569C29.3132 36.6795 29.3132 36.6021 29.3132 36.5224C29.2132 36.4786 29.2132 36.4786 29.1112 36.434C28.803 36.2653 28.5809 36.0659 28.3239 35.8262C27.8701 35.4103 27.4099 35.0057 26.9388 34.6097C26.8092 34.5005 26.6796 34.3914 26.55 34.2822C26.4513 34.1991 26.4513 34.1991 26.3507 34.1144C25.5206 33.4138 24.6934 32.7103 23.8903 31.9788C23.5217 31.6439 23.1458 31.3267 22.7544 31.0188C22.2042 30.5861 21.6929 30.1188 21.1792 29.6438C20.8334 29.3366 20.4734 29.0644 20.0928 28.802C20.0137 28.7349 20.0137 28.7349 19.933 28.6664C19.933 28.589 19.933 28.5117 19.933 28.4319C19.8704 28.4055 19.8078 28.379 19.7433 28.3518C19.3724 28.1468 19.0651 27.8795 18.7458 27.6038C18.6785 27.5463 18.6112 27.4889 18.5418 27.4296C18.0354 26.9953 17.5409 26.5486 17.0474 26.0997C16.768 25.8531 16.4812 25.621 16.1882 25.3907C15.6464 24.964 15.1414 24.5051 14.6341 24.0382C14.0089 23.4755 13.3553 22.9438 12.6844 22.4365C12.6 22.3642 12.5157 22.292 12.4288 22.2175C12.4288 22.1401 12.4288 22.0627 12.4288 21.983C12.3342 21.9431 12.3342 21.9431 12.2378 21.9024C11.8732 21.7006 11.5753 21.4355 11.2636 21.1622C10.5057 20.4984 9.71344 19.9033 8.9112 19.2862C8.9112 32.8676 8.9112 46.449 8.9112 60.442C6.20265 60.442 3.49411 60.442 0.703491 60.442C0.703491 40.8631 0.703491 21.2842 0.703491 1.112C1.17684 1.34867 1.39316 1.55886 1.75877 1.93277C1.98177 2.13282 2.20819 2.32858 2.4348 2.52453C2.71884 2.77281 2.99713 3.02681 3.27573 3.28118C3.73427 3.69585 4.20646 4.08149 4.70062 4.45279C4.90969 4.61782 5.09028 4.79132 5.27635 4.98135C5.41461 5.10459 5.55394 5.22665 5.69407 5.34776C6.05999 5.66561 6.42033 5.98872 6.77866 6.3151C7.2911 6.7781 7.8211 7.21458 8.35791 7.64885C8.76787 7.98813 9.15919 8.34574 9.55242 8.70413C9.85959 8.97716 10.1746 9.23711 10.4941 9.49558C11.0121 9.91491 11.5082 10.352 12.001 10.8005C12.4705 11.2208 12.9535 11.6249 13.4355 12.0307C14.9246 13.2844 16.4119 14.5466 17.8517 15.8566C18.3465 16.3054 18.8604 16.7263 19.3797 17.1463C19.6893 17.4025 19.9878 17.6671 20.2847 17.9378C20.674 18.2922 21.07 18.6325 21.4792 18.9638C22.2324 19.5739 22.9617 20.21 23.6922 20.8469C24.1329 21.2308 24.5749 21.6132 25.0169 21.9958C25.3944 22.3226 25.7712 22.6503 26.1469 22.9792C27.1426 23.8499 27.1426 23.8499 28.1906 24.656C28.4735 24.8722 28.7137 25.1285 28.9614 25.3834C29.0775 25.4607 29.1936 25.5381 29.3132 25.6179C29.3132 25.6952 29.3132 25.7726 29.3132 25.8524C29.3782 25.88 29.4432 25.9077 29.5102 25.9362C29.8484 26.1235 30.1002 26.3587 30.3831 26.6218C30.7572 26.9824 30.7572 26.9824 31.1892 27.2594C31.1892 27.3368 31.1892 27.4142 31.1892 27.4939C31.2551 27.5241 31.321 27.5544 31.3889 27.5855C31.6896 27.745 31.9458 27.931 32.2152 28.1388C32.3089 28.2101 32.4026 28.2815 32.4992 28.355C32.5699 28.4191 32.6407 28.4832 32.7135 28.5492C32.7135 28.6266 32.7135 28.704 32.7135 28.7837C32.8135 28.8272 32.8135 28.8272 32.9155 28.8716C33.2255 29.0418 33.4458 29.2444 33.7029 29.4872C34.2276 29.9699 34.7733 30.4068 35.3453 30.831C35.7539 31.1372 36.1081 31.4686 36.4656 31.8323C39.078 34.1813 42.1852 35.7805 45.7579 35.7529C45.8772 35.7524 45.8772 35.7524 45.999 35.7519C47.2566 35.7443 48.4057 35.6393 49.598 35.2326C49.802 35.1648 49.802 35.1648 50.0102 35.0956C53.1738 33.959 55.3788 31.683 56.8402 28.715C58.4232 25.1571 58.4979 21.0734 57.1595 17.4234C55.9227 14.2354 53.8406 11.8531 50.8877 10.1405C50.7838 10.0799 50.6798 10.0193 50.5726 9.95681C48.504 8.84213 46.1413 8.61885 43.839 8.489C43.7479 8.48383 43.6567 8.47866 43.5629 8.47333C41.5084 8.36011 39.4585 8.36353 37.4017 8.38176C36.7523 8.38728 36.1028 8.38938 35.4533 8.39079C35.2866 8.39117 35.2866 8.39117 35.1166 8.39156C34.8901 8.39207 34.6636 8.39257 34.4371 8.39306C32.9329 8.3964 31.4287 8.40178 29.9245 8.41663C28.898 8.42674 27.8717 8.4314 26.8452 8.42985C26.3058 8.42925 25.7668 8.43131 25.2274 8.44014C21.3684 8.50059 21.3684 8.50059 20.3536 7.53586C20.1773 7.34264 20.0156 7.14608 19.8584 6.93706C19.5755 6.58876 19.2243 6.31901 18.8777 6.03662C18.7423 5.92137 18.6071 5.80584 18.4723 5.6899C18.4047 5.63192 18.337 5.57393 18.2673 5.51419C17.9711 5.25925 17.6765 5.00249 17.3817 4.74587C16.805 4.24378 16.2267 3.74649 15.6313 3.26652C15.1112 2.84586 14.6181 2.40072 14.1292 1.94485C13.6277 1.48022 13.1041 1.05167 12.5671 0.628331C12.3115 0.408481 12.3115 0.408481 12.077 0.0567227Z" fill="#DDB863"/>
<path d="M17.0016 36.8741C17.1514 36.9854 17.3011 37.0969 17.4507 37.2085C17.534 37.2705 17.6174 37.3326 17.7033 37.3965C17.9951 37.6201 18.2645 37.8619 18.5332 38.1126C18.864 38.4155 19.1899 38.7009 19.5592 38.9554C19.924 39.2129 20.2042 39.4905 20.5192 39.8055C20.7173 39.9718 20.9177 40.1354 21.1201 40.2965C21.5784 40.6669 22.0205 41.0478 22.4539 41.447C22.8734 41.8332 23.2999 42.2029 23.7437 42.5609C24.1874 42.9189 24.6139 43.2887 25.0334 43.6748C25.5562 44.1559 26.0963 44.6073 26.6493 45.053C27.0815 45.4101 27.4944 45.7866 27.9066 46.1664C28.1271 46.3772 28.1271 46.3772 28.3752 46.4889C28.3752 46.5663 28.3752 46.6437 28.3752 46.7234C28.4373 46.7492 28.4994 46.7751 28.5634 46.8017C28.945 47.014 29.2577 47.2944 29.5843 47.5808C29.6554 47.6423 29.7264 47.7039 29.7996 47.7672C30.1075 48.0341 30.4142 48.3023 30.7208 48.5707C30.8768 48.7072 31.0329 48.8436 31.1891 48.9799C31.3364 49.1086 31.4835 49.2376 31.6302 49.367C31.9661 49.6605 32.3033 49.9359 32.67 50.1901C33.0379 50.4463 33.3377 50.7409 33.6515 51.0617C33.9903 51.3411 34.3345 51.6125 34.6798 51.8839C34.8092 51.9993 34.8092 51.9993 34.9413 52.117C34.9413 52.1944 34.9413 52.2718 34.9413 52.3515C35.0033 52.3772 35.0653 52.4029 35.1291 52.4294C35.5136 52.6436 35.8287 52.9274 36.1578 53.2163C36.3053 53.3442 36.4528 53.4722 36.6003 53.6001C36.6753 53.6655 36.7504 53.7309 36.8278 53.7983C37.1745 54.0996 37.5236 54.3981 37.8726 54.6966C38.3002 55.0626 38.7273 55.4292 39.1533 55.7972C39.2284 55.862 39.3035 55.9267 39.3809 55.9935C39.5255 56.1182 39.6699 56.243 39.8142 56.3681C40.1691 56.679 40.1691 56.679 40.5695 56.9244C40.5695 57.0018 40.5695 57.0792 40.5695 57.1589C40.6392 57.1913 40.7089 57.2236 40.7807 57.257C41.0247 57.3861 41.2052 57.5183 41.4113 57.7003C41.5156 57.7916 41.5156 57.7916 41.622 57.8847C41.6954 57.9499 41.7689 58.0151 41.8446 58.0823C42.0007 58.2194 42.1569 58.3565 42.3131 58.4936C42.3928 58.5636 42.4724 58.6336 42.5545 58.7057C42.794 58.9148 43.0353 59.1214 43.2777 59.3272C43.3912 59.4235 43.3912 59.4235 43.507 59.5219C43.6526 59.6453 43.7984 59.7684 43.9443 59.8914C44.1113 60.0333 44.2754 60.1787 44.4388 60.3247C44.4388 60.3634 44.4388 60.4021 44.4388 60.442C43.0128 60.4747 41.587 60.4996 40.1607 60.5149C39.4983 60.5222 38.8361 60.5321 38.1739 60.5481C37.5337 60.5635 36.8938 60.5718 36.2535 60.5755C36.0102 60.5781 35.767 60.5831 35.5238 60.5907C33.4217 60.6541 33.4217 60.6541 32.6107 59.9547C32.314 59.6625 32.0471 59.3508 31.7755 59.0349C31.5669 58.8544 31.355 58.6776 31.1379 58.5073C30.6385 58.106 30.1499 57.6946 29.6649 57.2762C29.1774 56.8555 28.6862 56.4417 28.1846 56.0377C27.6626 55.6144 27.1671 55.1669 26.6755 54.7092C26.1682 54.2398 25.6404 53.8024 25.1017 53.3692C24.8576 53.1723 24.8576 53.1723 24.7403 53.055C24.7016 55.4927 24.6629 57.9304 24.6231 60.442C22.755 60.4467 22.755 60.4467 21.9613 60.4477C21.4188 60.4484 20.8763 60.4492 20.3339 60.4508C19.8967 60.4521 19.4596 60.4528 19.0224 60.4531C18.8553 60.4533 18.6882 60.4537 18.521 60.4544C18.2877 60.4552 18.0544 60.4553 17.821 60.4553C17.688 60.4556 17.5549 60.4558 17.4179 60.4561C17.1189 60.442 17.1189 60.442 17.0016 60.3247C16.9902 60.0222 16.9864 59.7229 16.9875 59.4204C16.9874 59.3245 16.9873 59.2286 16.9872 59.1299C16.987 58.8061 16.9877 58.4824 16.9883 58.1587C16.9883 57.9277 16.9883 57.6966 16.9883 57.4656C16.9882 56.8362 16.9889 56.2068 16.9897 55.5775C16.9905 54.9205 16.9905 54.2636 16.9907 53.6067C16.991 52.3617 16.992 51.1168 16.9932 49.8718C16.9945 48.4549 16.9951 47.0379 16.9957 45.621C16.9969 42.7054 16.999 39.7898 17.0016 36.8741Z" fill="#DDB863"/>
<path d="M28.9615 15.5341C30.8095 15.5231 32.6575 15.5148 34.5055 15.5098C35.3638 15.5074 36.222 15.5041 37.0803 15.4987C37.8292 15.494 38.5781 15.491 39.3271 15.49C39.7228 15.4894 40.1186 15.4877 40.5143 15.4845C44.7774 15.4515 44.7774 15.4515 46.4322 16.7066C46.5307 16.7813 46.6293 16.856 46.7308 16.9329C47.9543 17.945 48.7916 19.3508 49.0117 20.9277C49.1369 22.8156 48.7984 24.6203 47.5387 26.0988C46.7396 26.9806 45.9002 27.5319 44.7906 27.9629C44.678 28.0113 44.5654 28.0596 44.4494 28.1095C44.0882 28.2259 43.8753 28.2667 43.5008 28.1974C43.0246 27.8716 42.6413 27.4917 42.2489 27.0712C42.0544 26.866 41.8469 26.6809 41.6321 26.4972C41.5597 26.4344 41.4873 26.3715 41.4127 26.3067C41.0073 25.9598 40.5995 25.6157 40.1917 25.2716C39.8459 24.9796 39.502 24.6859 39.1625 24.3867C38.2969 23.625 37.4145 22.8826 36.517 22.1589C35.9915 21.7318 35.4937 21.282 34.9982 20.8211C34.5139 20.3731 34.0082 19.9566 33.4945 19.5427C32.984 19.1229 32.4987 18.6757 32.0101 18.2309C31.8445 18.0813 31.6784 17.9322 31.5117 17.7839C31.4434 17.7227 31.3751 17.6615 31.3047 17.5984C31.0625 17.3958 31.0625 17.3958 30.7395 17.194C30.3322 16.9163 29.9808 16.6096 29.621 16.2743C29.5251 16.1866 29.5251 16.1866 29.4273 16.0972C29.2694 15.9514 29.1151 15.8017 28.9615 15.6513C28.9615 15.6127 28.9615 15.574 28.9615 15.5341Z" fill="#DDB863"/>
<path d="M0 71.6983C2.07733 71.6929 4.15465 71.6886 6.23198 71.6861C7.19671 71.6849 8.16143 71.6833 9.12615 71.6806C9.96783 71.6782 10.8095 71.6767 11.6512 71.6762C12.0961 71.6759 12.541 71.6752 12.9859 71.6735C18.9489 71.6513 18.9489 71.6513 20.7666 73.3343C21.7926 74.448 22.0856 75.6673 22.0729 77.1505C22.0738 77.2559 22.0747 77.3612 22.0756 77.4698C22.0718 78.7753 21.7277 79.927 20.8316 80.9099C19.9186 81.764 19.0253 82.1624 17.8224 82.4562C17.7204 82.4821 17.6184 82.5079 17.5133 82.5345C17.2648 82.5973 17.016 82.6588 16.7672 82.72C16.8328 82.7559 16.8984 82.7917 16.9659 82.8286C17.6562 83.2226 18.2784 83.6762 18.8971 84.1723C19.5148 84.6659 20.1464 85.1387 20.7831 85.6074C20.8809 85.6796 20.9788 85.7519 21.0796 85.8263C21.544 86.1774 21.544 86.1774 22.0435 86.4721C22.0435 86.5495 22.0435 86.6269 22.0435 86.7066C21.1241 86.7367 20.2048 86.7595 19.2851 86.7735C18.8577 86.7801 18.4308 86.7892 18.0036 86.8039C14.716 86.9146 14.716 86.9146 13.7726 86.0984C13.5456 85.8798 13.3412 85.6539 13.1323 85.4168C12.9763 85.2876 12.8175 85.1616 12.6542 85.0417C10.4139 83.2847 10.4139 83.2847 10.201 83.0718C9.88861 83.053 9.57891 83.0414 9.26619 83.0347C9.1259 83.031 9.1259 83.031 8.98277 83.0273C8.6829 83.0196 8.38302 83.0127 8.08312 83.0058C7.8803 83.0008 7.67747 82.9957 7.47464 82.9905C6.97641 82.9779 6.47816 82.966 5.9799 82.9545C5.98051 83.064 5.98113 83.1735 5.98176 83.2863C5.98375 83.6913 5.98523 84.0962 5.98634 84.5011C5.98693 84.6766 5.98773 84.8521 5.98874 85.0276C5.99016 85.2793 5.99083 85.5311 5.99135 85.7828C5.99196 85.9345 5.99258 86.0861 5.99321 86.2424C5.9799 86.5894 5.9799 86.5894 5.86265 86.7066C5.67909 86.7176 5.49504 86.7204 5.31116 86.7199C5.19215 86.7199 5.07313 86.7199 4.95051 86.7199C4.82453 86.7193 4.69854 86.7187 4.56874 86.7181C4.45361 86.718 4.33848 86.7178 4.21986 86.7177C3.7879 86.7171 3.35595 86.7155 2.92399 86.714C1.95908 86.7115 0.994158 86.7091 0 86.7066C0 83.9981 0 81.2895 0 78.4989C1.12302 78.4932 2.24603 78.4874 3.40308 78.4815C4.11271 78.4774 4.82233 78.4732 5.53196 78.4687C6.65937 78.4616 7.78678 78.4548 8.9142 78.4495C9.73517 78.4456 10.5561 78.4409 11.3771 78.4353C11.812 78.4323 12.2469 78.4298 12.6818 78.4282C13.1667 78.4264 13.6516 78.4228 14.1365 78.4191C14.3539 78.4187 14.3539 78.4187 14.5758 78.4183C14.7073 78.417 14.8389 78.4157 14.9744 78.4143C15.0892 78.4137 15.204 78.413 15.3222 78.4124C15.6173 78.4078 15.6173 78.4078 15.8291 78.1472C15.8291 77.7602 15.8291 77.3733 15.8291 76.9746C7.99372 76.9166 7.99372 76.9166 0 76.8574C0 75.1549 0 73.4524 0 71.6983Z" fill="#DDB863"/>
</svg>
